<svg xmlns="http://www.w3.org/2000/svg" version="1.1" xmlns:xlink="http://www.w3.org/1999/xlink" xmlns:svgjs="http://svgjs.dev/svgjs" viewBox="0 0 800 800" opacity="0.23" width="800" height="800"><g stroke-width="1.25" stroke="hsla(212, 72%, 59%, 1.00)" fill="none"><rect width="160" height="133.33333333333334" x="0" y="0" opacity="0.15"></rect><circle r="5.526315789473684" cx="0" cy="0" fill="hsla(212, 72%, 59%, 1.00)" stroke="none"></circle><rect width="160" height="133.33333333333334" x="160" y="0" opacity="0.15"></rect><circle r="5.526315789473684" cx="160" cy="0" fill="hsla(212, 72%, 59%, 1.00)" stroke="none"></circle><rect width="160" height="133.33333333333334" x="320" y="0" opacity="0.15"></rect><circle r="5.526315789473684" cx="320" cy="0" fill="hsla(212, 72%, 59%, 1.00)" stroke="none"></circle><rect width="160" height="133.33333333333334" x="480" y="0" opacity="0.15"></rect><circle r="5.526315789473684" cx="480" cy="0" fill="hsla(212, 72%, 59%, 1.00)" stroke="none"></circle><rect width="160" height="133.33333333333334" x="640" y="0" opacity="0.15"></rect><circle r="5.526315789473684" cx="640" cy="0" fill="hsla(212, 72%, 59%, 1.00)" stroke="none"></circle><rect width="160" height="133.33333333333334" x="800" y="0" opacity="0.15"></rect><circle r="5.526315789473684" cx="800" cy="0" fill="hsla(212, 72%, 59%, 1.00)" stroke="none"></circle><rect width="160" height="133.33333333333334" x="0" y="133.33333333333334" opacity="0.15"></rect><circle r="5.526315789473684" cx="0" cy="133.33333333333334" fill="hsla(212, 72%, 59%, 1.00)" stroke="none"></circle><rect width="160" height="133.33333333333334" x="160" y="133.33333333333334" opacity="0.15"></rect><circle r="5.526315789473684" cx="160" cy="133.33333333333334" fill="hsla(212, 72%, 59%, 1.00)" stroke="none"></circle><rect width="160" height="133.33333333333334" x="320" y="133.33333333333334" opacity="0.15"></rect><circle r="5.526315789473684" cx="320" cy="133.33333333333334" fill="hsla(212, 72%, 59%, 1.00)" stroke="none"></circle><rect width="160" height="133.33333333333334" x="480" y="133.33333333333334" opacity="0.15"></rect><circle r="5.526315789473684" cx="480" cy="133.33333333333334" fill="hsla(212, 72%, 59%, 1.00)" stroke="none"></circle><rect width="160" height="133.33333333333334" x="640" y="133.33333333333334" opacity="0.15"></rect><circle r="5.526315789473684" cx="640" cy="133.33333333333334" fill="hsla(212, 72%, 59%, 1.00)" stroke="none"></circle><rect width="160" height="133.33333333333334" x="800" y="133.33333333333334" opacity="0.15"></rect><circle r="5.526315789473684" cx="800" cy="133.33333333333334" fill="hsla(212, 72%, 59%, 1.00)" stroke="none"></circle><rect width="160" height="133.33333333333334" x="0" y="266.6666666666667" opacity="0.15"></rect><circle r="5.526315789473684" cx="0" cy="266.6666666666667" fill="hsla(212, 72%, 59%, 1.00)" stroke="none"></circle><rect width="160" height="133.33333333333334" x="160" y="266.6666666666667" opacity="0.15"></rect><circle r="5.526315789473684" cx="160" cy="266.6666666666667" fill="hsla(212, 72%, 59%, 1.00)" stroke="none"></circle><rect width="160" height="133.33333333333334" x="320" y="266.6666666666667" opacity="0.15"></rect><circle r="5.526315789473684" cx="320" cy="266.6666666666667" fill="hsla(212, 72%, 59%, 1.00)" stroke="none"></circle><rect width="160" height="133.33333333333334" x="480" y="266.6666666666667" opacity="0.15"></rect><circle r="5.526315789473684" cx="480" cy="266.6666666666667" fill="hsla(212, 72%, 59%, 1.00)" stroke="none"></circle><rect width="160" height="133.33333333333334" x="640" y="266.6666666666667" opacity="0.15"></rect><circle r="5.526315789473684" cx="640" cy="266.6666666666667" fill="hsla(212, 72%, 59%, 1.00)" stroke="none"></circle><rect width="160" height="133.33333333333334" x="800" y="266.6666666666667" opacity="0.15"></rect><circle r="5.526315789473684" cx="800" cy="266.6666666666667" fill="hsla(212, 72%, 59%, 1.00)" stroke="none"></circle><rect width="160" height="133.33333333333334" x="0" y="400" opacity="0.15"></rect><circle r="5.526315789473684" cx="0" cy="400" fill="hsla(212, 72%, 59%, 1.00)" stroke="none"></circle><rect width="160" height="133.33333333333334" x="160" y="400" opacity="0.15"></rect><circle r="5.526315789473684" cx="160" cy="400" fill="hsla(212, 72%, 59%, 1.00)" stroke="none"></circle><rect width="160" height="133.33333333333334" x="320" y="400" opacity="0.15"></rect><circle r="5.526315789473684" cx="320" cy="400" fill="hsla(212, 72%, 59%, 1.00)" stroke="none"></circle><rect width="160" height="133.33333333333334" x="480" y="400" opacity="0.15"></rect><circle r="5.526315789473684" cx="480" cy="400" fill="hsla(212, 72%, 59%, 1.00)" stroke="none"></circle><rect width="160" height="133.33333333333334" x="640" y="400" opacity="0.15"></rect><circle r="5.526315789473684" cx="640" cy="400" fill="hsla(212, 72%, 59%, 1.00)" stroke="none"></circle><rect width="160" height="133.33333333333334" x="800" y="400" opacity="0.15"></rect><circle r="5.526315789473684" cx="800" cy="400" fill="hsla(212, 72%, 59%, 1.00)" stroke="none"></circle><rect width="160" height="133.33333333333334" x="0" y="533.3333333333334" opacity="0.15"></rect><circle r="5.526315789473684" cx="0" cy="533.3333333333334" fill="hsla(212, 72%, 59%, 1.00)" stroke="none"></circle><rect width="160" height="133.33333333333334" x="160" y="533.3333333333334" opacity="0.15"></rect><circle r="5.526315789473684" cx="160" cy="533.3333333333334" fill="hsla(212, 72%, 59%, 1.00)" stroke="none"></circle><rect width="160" height="133.33333333333334" x="320" y="533.3333333333334" opacity="0.15"></rect><circle r="5.526315789473684" cx="320" cy="533.3333333333334" fill="hsla(212, 72%, 59%, 1.00)" stroke="none"></circle><rect width="160" height="133.33333333333334" x="480" y="533.3333333333334" opacity="0.15"></rect><circle r="5.526315789473684" cx="480" cy="533.3333333333334" fill="hsla(212, 72%, 59%, 1.00)" stroke="none"></circle><rect width="160" height="133.33333333333334" x="640" y="533.3333333333334" opacity="0.15"></rect><circle r="5.526315789473684" cx="640" cy="533.3333333333334" fill="hsla(212, 72%, 59%, 1.00)" stroke="none"></circle><rect width="160" height="133.33333333333334" x="800" y="533.3333333333334" opacity="0.15"></rect><circle r="5.526315789473684" cx="800" cy="533.3333333333334" fill="hsla(212, 72%, 59%, 1.00)" stroke="none"></circle><rect width="160" height="133.33333333333334" x="0" y="666.6666666666667" opacity="0.15"></rect><circle r="5.526315789473684" cx="0" cy="666.6666666666667" fill="hsla(212, 72%, 59%, 1.00)" stroke="none"></circle><rect width="160" height="133.33333333333334" x="160" y="666.6666666666667" opacity="0.15"></rect><circle r="5.526315789473684" cx="160" cy="666.6666666666667" fill="hsla(212, 72%, 59%, 1.00)" stroke="none"></circle><rect width="160" height="133.33333333333334" x="320" y="666.6666666666667" opacity="0.15"></rect><circle r="5.526315789473684" cx="320" cy="666.6666666666667" fill="hsla(212, 72%, 59%, 1.00)" stroke="none"></circle><rect width="160" height="133.33333333333334" x="480" y="666.6666666666667" opacity="0.15"></rect><circle r="5.526315789473684" cx="480" cy="666.6666666666667" fill="hsla(212, 72%, 59%, 1.00)" stroke="none"></circle><rect width="160" height="133.33333333333334" x="640" y="666.6666666666667" opacity="0.15"></rect><circle r="5.526315789473684" cx="640" cy="666.6666666666667" fill="hsla(212, 72%, 59%, 1.00)" stroke="none"></circle><rect width="160" height="133.33333333333334" x="800" y="666.6666666666667" opacity="0.15"></rect><circle r="5.526315789473684" cx="800" cy="666.6666666666667" fill="hsla(212, 72%, 59%, 1.00)" stroke="none"></circle><rect width="160" height="133.33333333333334" x="0" y="800.0000000000001" opacity="0.15"></rect><circle r="5.526315789473684" cx="0" cy="800.0000000000001" fill="hsla(212, 72%, 59%, 1.00)" stroke="none"></circle><rect width="160" height="133.33333333333334" x="160" y="800.0000000000001" opacity="0.15"></rect><circle r="5.526315789473684" cx="160" cy="800.0000000000001" fill="hsla(212, 72%, 59%, 1.00)" stroke="none"></circle><rect width="160" height="133.33333333333334" x="320" y="800.0000000000001" opacity="0.15"></rect><circle r="5.526315789473684" cx="320" cy="800.0000000000001" fill="hsla(212, 72%, 59%, 1.00)" stroke="none"></circle><rect width="160" height="133.33333333333334" x="480" y="800.0000000000001" opacity="0.15"></rect><circle r="5.526315789473684" cx="480" cy="800.0000000000001" fill="hsla(212, 72%, 59%, 1.00)" stroke="none"></circle><rect width="160" height="133.33333333333334" x="640" y="800.0000000000001" opacity="0.15"></rect><circle r="5.526315789473684" cx="640" cy="800.0000000000001" fill="hsla(212, 72%, 59%, 1.00)" stroke="none"></circle><rect width="160" height="133.33333333333334" x="800" y="800.0000000000001" opacity="0.15"></rect><circle r="5.526315789473684" cx="800" cy="800.0000000000001" fill="hsla(212, 72%, 59%, 1.00)" stroke="none"></circle></g></svg>